<svg width="20" height="20" viewBox="0 0 20 20" fill="none" xmlns="http://www.w3.org/2000/svg">
  <path
    d="M6.5 12C6.36739 12 6.24021 11.9473 6.14645 11.8536C6.05268 11.7598 6 11.6326 6 11.5C6 11.3674 6.05268 11.2402 6.14645 11.1464C6.24021 11.0527 6.36739 11 6.5 11H13.5C13.6326 11 13.7598 11.0527 13.8536 11.1464C13.9473 11.2402 14 11.3674 14 11.5C14 11.6326 13.9473 11.7598 13.8536 11.8536C13.7598 11.9473 13.6326 12 13.5 12H6.5ZM6.5 15C6.36739 15 6.24021 14.9473 6.14645 14.8536C6.05268 14.7598 6 14.6326 6 14.5C6 14.3674 6.05268 14.2402 6.14645 14.1464C6.24021 14.0527 6.36739 14 6.5 14H13.5C13.6326 14 13.7598 14.0527 13.8536 14.1464C13.9473 14.2402 14 14.3674 14 14.5C14 14.6326 13.9473 14.7598 13.8536 14.8536C13.7598 14.9473 13.6326 15 13.5 15H6.5Z"
    fill="currentColor" />
  <path fill-rule="evenodd" clip-rule="evenodd"
    d="M11.185 1H4.5C4.10218 1 3.72064 1.15804 3.43934 1.43934C3.15804 1.72064 3 2.10218 3 2.5V17.5C3 17.8978 3.15804 18.2794 3.43934 18.5607C3.72064 18.842 4.10218 19 4.5 19H15.5C15.8978 19 16.2794 18.842 16.5607 18.5607C16.842 18.2794 17 17.8978 17 17.5V7.202C16.9999 6.82647 16.859 6.46464 16.605 6.188L12.291 1.486C12.1504 1.33275 11.9795 1.2104 11.7891 1.12673C11.5987 1.04307 11.393 0.99991 11.185 1ZM4 2.5C4 2.36739 4.05268 2.24022 4.14645 2.14645C4.24021 2.05268 4.36739 2 4.5 2H11.185C11.2544 1.99992 11.323 2.01429 11.3865 2.04218C11.4501 2.07007 11.5071 2.11087 11.554 2.162L15.868 6.864C15.9528 6.95616 15.9999 7.07678 16 7.202V17.5C16 17.6326 15.9473 17.7598 15.8536 17.8536C15.7598 17.9473 15.6326 18 15.5 18H4.5C4.36739 18 4.24021 17.9473 4.14645 17.8536C4.05268 17.7598 4 17.6326 4 17.5V2.5Z"
    fill="currentColor" />
  <path
    d="M11 7H16.5C16.6326 7 16.7598 7.05268 16.8536 7.14645C16.9473 7.24021 17 7.36739 17 7.5C17 7.63261 16.9473 7.75979 16.8536 7.85355C16.7598 7.94732 16.6326 8 16.5 8H10.5C10.3674 8 10.2402 7.94732 10.1464 7.85355C10.0527 7.75979 10 7.63261 10 7.5V1.5C10 1.36739 10.0527 1.24021 10.1464 1.14645C10.2402 1.05268 10.3674 1 10.5 1C10.6326 1 10.7598 1.05268 10.8536 1.14645C10.9473 1.24021 11 1.36739 11 1.5V7Z"
    fill="currentColor" />
</svg>