<svg width="22" height="20" viewBox="0 0 22 20" fill="none" xmlns="http://www.w3.org/2000/svg">
  <path
    d="M20.7922 19V17C20.7929 16.1134 20.4985 15.2518 19.9553 14.551C19.4121 13.8503 18.651 13.3503 17.7922 13.13M14.2922 1.29004C15.032 1.58822 15.6658 2.10075 16.1121 2.76184C16.5584 3.42293 16.7969 4.20235 16.7969 5C16.7969 5.79765 16.5584 6.57707 16.1121 7.23816C15.6658 7.89925 15.032 8.41178 14.2922 8.70996M15.7922 19C15.9008 17.8148 15.7992 16.6198 15.4921 15.47C15.0819 14.4897 14.3025 13.7103 13.3222 13.3C12.1724 12.993 10.9773 12.8914 9.79217 13H6.79217C5.60702 12.8914 4.41197 12.993 3.26214 13.3C2.28185 13.7103 1.50243 14.4897 1.09222 15.47C0.785166 16.6198 0.683557 17.8148 0.792169 19M12.2922 5C12.2922 5.79113 12.0576 6.56449 11.6181 7.22229C11.1786 7.88009 10.5538 8.39281 9.82293 8.69556C9.09203 8.99831 8.2877 9.07744 7.51177 8.9231C6.73585 8.76875 6.02321 8.38778 5.4638 7.82837C4.90439 7.26896 4.52341 6.55632 4.36907 5.7804C4.21473 5.00447 4.29386 4.20014 4.59661 3.46924C4.89936 2.73833 5.41208 2.1136 6.06988 1.67407C6.72768 1.23455 7.50104 1 8.29217 1C9.35304 1 10.3704 1.42149 11.1205 2.17163C11.8707 2.92178 12.2922 3.93913 12.2922 5Z"
    stroke='currentColor' stroke-width="1.5" stroke-linecap="round" stroke-linejoin="round" />
</svg>